M48
;GenerationSoftware,Autodesk,EAGLE,9.6.2*%
;CreationDate,2020-09-15T12:29:53Z*%
FMAT,2
ICI,OFF
METRIC,TZ,000.000
T6C0.813
T5C1.000
T4C1.016
T3C1.118
T2C1.300
T1C3.819
%
G90
M71
T1
X2413Y81026
X100457Y81915
X1778Y-4572
X96139Y-3429
T2
X85510Y67660
X85510Y16160
X85510Y79660
X71310Y10160
X73310Y4160
X73310Y16160
X85510Y4160
X71310Y31750
X71310Y73660
X73310Y67660
X73310Y79660
X73310Y25750
X73310Y37750
X85510Y25750
X85510Y37750
X71310Y52070
X73310Y46070
X73310Y58070
X85510Y46070
X85510Y58070
T3
X60960Y6350
X60960Y16510
X61595Y28067
X61595Y38227
X58039Y48133
X58420Y80010
X58039Y58293
X58420Y69850
T4
X99160Y73640
X99160Y69140
X97890Y10140
X99160Y31730
X97890Y5640
X99160Y46280
X99160Y50780
X99160Y27230
X37485Y227
X41985Y227
T5
X29210Y53340
X29210Y55880
X29210Y58420
X29210Y60960
X29210Y33020
X1270Y60960
X1270Y58420
X1270Y55880
X1270Y53340
X1270Y50800
X1270Y48260
X1270Y45720
X1270Y43180
X1270Y40640
X1270Y38100
X1270Y35560
X1270Y33020
X1270Y30480
X1270Y27940
X1270Y25400
X29210Y25400
X29210Y27940
X29210Y30480
X29210Y35560
X29210Y38100
X29210Y40640
X29210Y43180
X29210Y45720
X29210Y48260
X29210Y50800
T6
X41910Y74930
X34290Y74930
X43180Y12700
X41910Y33020
X46990Y53340
X35560Y53340
X43180Y53340
X34290Y33020
X35560Y12700
X46990Y77470
X46990Y72390
X46990Y74930
X48260Y15240
X48260Y10160
X48260Y12700
X46990Y35560
X46990Y30480
X46990Y33020
X46990Y55880
X46990Y50800
M30